<?xml version="1.0" encoding="utf-8"?>
<svg version="1.1" id="invisible_00000032631936253525700070000014680941554054917271_"
	 xmlns="http://www.w3.org/2000/svg" xmlns:xlink="http://www.w3.org/1999/xlink" x="0px" y="0px" viewBox="0 0 16 16"
	 style="enable-background:new 0 0 16 16;" xml:space="preserve">
<path class="daextrebl-svg-color" d="M6,7.9c0.1-1,0.9-1.8,1.9-1.9l0.9-0.9C8.5,5,8.3,5,8,5C6.3,5,5,6.3,5,8c0,0.3,0,0.5,0.1,0.8L6,7.9z"/>
<path class="daextrebl-svg-color" d="M10,8.1c-0.1,1-0.9,1.8-1.9,1.9l-0.9,0.9C7.5,11,7.7,11,8,11c1.7,0,3-1.3,3-3c0-0.3,0-0.5-0.1-0.8L10,8.1z"/>
<path class="daextrebl-svg-color" d="M2.8,11.1l0.7-0.7C2.8,9.7,2.1,8.9,1.7,8C2.8,5.6,5.3,4,8,4c0.6,0,1.1,0.1,1.7,0.2l0.8-0.8C9.7,3.1,8.9,3,8,3
	C4.8,3,1.9,4.9,0.7,7.8L0.6,8l0.1,0.2C1.2,9.3,1.9,10.3,2.8,11.1z"/>
<path class="daextrebl-svg-color" d="M13.2,4.9l-0.7,0.7c0.8,0.6,1.4,1.4,1.8,2.4c-1.2,2.4-3.6,4-6.3,4c-0.6,0-1.1-0.1-1.7-0.2l-0.8,0.8
	C6.3,12.9,7.1,13,8,13c3.2,0,6.1-1.9,7.3-4.8L15.4,8l-0.1-0.2C14.8,6.7,14.1,5.7,13.2,4.9z"/>
<rect x="-2.6" y="7.5" transform="matrix(0.7071 -0.7071 0.7071 0.7071 -3.3137 8)" class="daextrebl-svg-color" width="21.2" height="1"/>
</svg>