<svg id="Layer_1" data-name="Layer 1" xmlns="http://www.w3.org/2000/svg" viewBox="0 0 256 256"><defs><style>.cls-1{fill:#091f42;}.cls-2{fill:#c2c9d1;}.cls-3{fill:#1e58b1;}.cls-4{fill:#3a70c4;}</style></defs><g id="icon-256x256.psd"><rect class="cls-1" width="256" height="256"/><path class="cls-2" d="M57.75,174H52.84v9.22h-1.9V161h8.31c3.84,0,6.78,2.44,6.78,6.51a6.13,6.13,0,0,1-6.18,6.41l6.45,9.36H64Zm1.34-11.33H52.84v9.59h6.25a4.8,4.8,0,1,0,0-9.59Z"/><path class="cls-2" d="M78.47,166.72c4.91,0,7.62,3.91,7.62,8.55v.47H72.6c.16,3.51,2.5,6.41,6.28,6.41a7.17,7.17,0,0,0,5.31-2.23l.9,1.13a8.34,8.34,0,0,1-6.32,2.61c-4.7,0-8.08-3.51-8.08-8.49C70.69,170.5,74,166.72,78.47,166.72Zm-5.87,7.65H84.32c0-2.74-1.84-6.14-5.88-6.14C74.63,168.23,72.73,171.57,72.6,174.37Z"/><path class="cls-2" d="M91.49,179.82a6.66,6.66,0,0,0,5.21,2.37c2.7,0,4.31-1.34,4.31-3.21,0-2.07-2.21-2.67-4.55-3.27-2.67-.67-5.64-1.37-5.64-4.51,0-2.47,2.07-4.48,5.74-4.48a7.3,7.3,0,0,1,5.78,2.41l-1,1.2a5.87,5.87,0,0,0-4.81-2.14c-2.5,0-4,1.24-4,2.91,0,1.83,2.07,2.34,4.31,2.9,2.77.71,5.88,1.47,5.88,4.91,0,2.61-2,4.75-6,4.75a7.81,7.81,0,0,1-6.21-2.54Z"/><path class="cls-2" d="M109.47,180.15V168.69h-2.68v-1.57h2.68v-4.41h1.77v4.41h3.27v1.57h-3.27v11.19c0,1.3.53,2.21,1.67,2.21a2.54,2.54,0,0,0,1.8-.77l.67,1.33a3.62,3.62,0,0,1-2.74,1C110.5,183.66,109.47,182.35,109.47,180.15Z"/><path class="cls-2" d="M120,167.12h1.74v2.78a6.91,6.91,0,0,1,5.44-3.11v1.9a7.75,7.75,0,0,0-.87-.06,6.14,6.14,0,0,0-4.57,2.87v11.76H120Z"/><path class="cls-2" d="M131.62,163.05a1.37,1.37,0,0,1,1.34-1.34,1.34,1.34,0,0,1,0,2.67A1.36,1.36,0,0,1,131.62,163.05Zm.47,4.07h1.74v16.14h-1.74Z"/><path class="cls-2" d="M147.38,166.72a6.69,6.69,0,0,1,5.71,2.74l-1.2,1.07a5.16,5.16,0,0,0-4.41-2.24c-3.78,0-6.08,3-6.08,6.88s2.3,6.92,6.08,6.92a5.19,5.19,0,0,0,4.41-2.27l1.2,1.06a6.64,6.64,0,0,1-5.71,2.78c-4.75,0-7.85-3.78-7.85-8.49S142.63,166.72,147.38,166.72Z"/><path class="cls-2" d="M159.69,180.15V168.69H157v-1.57h2.67v-4.41h1.77v4.41h3.27v1.57h-3.27v11.19c0,1.3.54,2.21,1.67,2.21a2.54,2.54,0,0,0,1.81-.77l.66,1.33a3.59,3.59,0,0,1-2.74,1C160.73,183.66,159.69,182.35,159.69,180.15Z"/><path class="cls-2" d="M176.28,166.72c4.91,0,7.62,3.91,7.62,8.55v.47H170.4c.17,3.51,2.51,6.41,6.28,6.41a7.15,7.15,0,0,0,5.31-2.23l.9,1.13a8.32,8.32,0,0,1-6.31,2.61c-4.71,0-8.08-3.51-8.08-8.49C168.5,170.5,171.8,166.72,176.28,166.72Zm-5.88,7.65h11.73c0-2.74-1.84-6.14-5.88-6.14C172.44,168.23,170.54,171.57,170.4,174.37Z"/><path class="cls-2" d="M201.69,180.68a6.88,6.88,0,0,1-5.61,3c-4.28,0-7.21-3.28-7.21-8.45s2.93-8.49,7.21-8.49a6.89,6.89,0,0,1,5.61,3V161h1.77v22.28h-1.77Zm0-9.45a6.44,6.44,0,0,0-5.31-2.94c-3.57,0-5.64,3-5.64,6.92s2.07,6.88,5.64,6.88a6.46,6.46,0,0,0,5.31-2.88Z"/><path class="cls-2" d="M78.63,206h9.15c3.71,0,6.15,2.17,6.15,5.68A5.08,5.08,0,0,1,90,216.77a5.61,5.61,0,0,1,4.34,5.47c0,3.71-2.4,6-6.41,6H78.63Zm8.92,10c2.87,0,4.37-1.8,4.37-4.1a4,4,0,0,0-4.37-4.15h-7V216Zm.13,10.56c2.94,0,4.68-1.7,4.68-4.41a4.33,4.33,0,0,0-4.68-4.41H80.53v8.82Z"/><path class="cls-2" d="M100.65,206h1.74v22.28h-1.74Z"/><path class="cls-2" d="M108.19,220.17c0-4.71,3-8.45,7.75-8.45s7.78,3.74,7.78,8.45-3,8.49-7.78,8.49S108.19,224.88,108.19,220.17Zm13.66,0c0-3.57-2.1-6.88-5.91-6.88s-5.88,3.31-5.88,6.88,2.14,6.92,5.88,6.92S121.85,223.78,121.85,220.17Z"/><path class="cls-2" d="M136.54,211.72a6.69,6.69,0,0,1,5.71,2.74l-1.2,1.07a5.15,5.15,0,0,0-4.41-2.24c-3.77,0-6.08,3-6.08,6.88s2.31,6.92,6.08,6.92a5.18,5.18,0,0,0,4.41-2.27l1.2,1.06a6.64,6.64,0,0,1-5.71,2.78c-4.74,0-7.85-3.78-7.85-8.49S131.8,211.72,136.54,211.72Z"/><path class="cls-2" d="M152.12,220.57l-3,2.84v4.85h-1.74V206h1.74v15.36l9.48-9.22h2.34l-7.51,7.28,7.48,8.86h-2.34Z"/><path class="cls-2" d="M165.48,224.82a6.67,6.67,0,0,0,5.21,2.37c2.71,0,4.31-1.34,4.31-3.21,0-2.07-2.21-2.67-4.54-3.27-2.68-.67-5.65-1.37-5.65-4.51,0-2.47,2.07-4.48,5.75-4.48a7.28,7.28,0,0,1,5.77,2.41l-1,1.2a5.89,5.89,0,0,0-4.81-2.14c-2.51,0-4.05,1.24-4.05,2.91,0,1.83,2.08,2.34,4.31,2.9,2.78.71,5.88,1.47,5.88,4.91,0,2.61-2,4.75-6,4.75a7.83,7.83,0,0,1-6.22-2.54Z"/></g><g id="_Group_" data-name="&lt;Group&gt;"><polygon class="cls-3" points="128 96.88 114.13 83 141.88 83 128 96.88"/><polygon class="cls-4" points="128 69.13 141.88 83 114.13 83 128 69.13"/><polyline class="cls-3" points="155.75 83 128 110.75 100.25 83 72.5 83 128 138.5 183.5 83"/><polygon class="cls-4" points="128 55.25 128 27.5 183.5 83 155.75 83 128 55.25"/></g></svg>